<svg width="207" height="25" viewBox="0 0 207 25" fill="none" xmlns="http://www.w3.org/2000/svg">
<rect y="1" width="5" height="24" fill="#4FD1C5"/>
<path d="M29.3906 16.4219C29.2135 18.8698 28.3073 20.7969 26.6719 22.2031C25.0469 23.6094 22.901 24.3125 20.2344 24.3125C17.3177 24.3125 15.0208 23.3333 13.3438 21.375C11.6771 19.4062 10.8438 16.7083 10.8438 13.2812V11.8906C10.8438 9.70312 11.2292 7.77604 12 6.10938C12.7708 4.44271 13.8698 3.16667 15.2969 2.28125C16.7344 1.38542 18.401 0.9375 20.2969 0.9375C22.9219 0.9375 25.0365 1.64062 26.6406 3.04688C28.2448 4.45312 29.1719 6.42708 29.4219 8.96875H24.7344C24.6198 7.5 24.2083 6.4375 23.5 5.78125C22.8021 5.11458 21.7344 4.78125 20.2969 4.78125C18.7344 4.78125 17.5625 5.34375 16.7812 6.46875C16.0104 7.58333 15.6146 9.31771 15.5938 11.6719V13.3906C15.5938 15.849 15.9635 17.6458 16.7031 18.7812C17.4531 19.9167 18.6302 20.4844 20.2344 20.4844C21.6823 20.4844 22.7604 20.1562 23.4688 19.5C24.1875 18.8333 24.599 17.8073 24.7031 16.4219H29.3906ZM41.9688 24C41.7604 23.5938 41.6094 23.0885 41.5156 22.4844C40.4219 23.7031 39 24.3125 37.25 24.3125C35.5938 24.3125 34.2188 23.8333 33.125 22.875C32.0417 21.9167 31.5 20.7083 31.5 19.25C31.5 17.4583 32.1615 16.0833 33.4844 15.125C34.8177 14.1667 36.7396 13.6823 39.25 13.6719H41.3281V12.7031C41.3281 11.9219 41.125 11.2969 40.7188 10.8281C40.3229 10.3594 39.6927 10.125 38.8281 10.125C38.0677 10.125 37.4688 10.3073 37.0312 10.6719C36.6042 11.0365 36.3906 11.5365 36.3906 12.1719H31.875C31.875 11.1927 32.1771 10.2865 32.7812 9.45312C33.3854 8.61979 34.2396 7.96875 35.3438 7.5C36.4479 7.02083 37.6875 6.78125 39.0625 6.78125C41.1458 6.78125 42.7969 7.30729 44.0156 8.35938C45.2448 9.40104 45.8594 10.8698 45.8594 12.7656V20.0938C45.8698 21.6979 46.0938 22.9115 46.5312 23.7344V24H41.9688ZM38.2344 20.8594C38.901 20.8594 39.5156 20.7135 40.0781 20.4219C40.6406 20.1198 41.0573 19.7188 41.3281 19.2188V16.3125H39.6406C37.3802 16.3125 36.1771 17.0938 36.0312 18.6562L36.0156 18.9219C36.0156 19.4844 36.2135 19.9479 36.6094 20.3125C37.0052 20.6771 37.5469 20.8594 38.2344 20.8594ZM48.625 15.4219C48.625 12.7865 49.2135 10.6875 50.3906 9.125C51.5781 7.5625 53.1979 6.78125 55.25 6.78125C56.8958 6.78125 58.2552 7.39583 59.3281 8.625V0H63.8594V24H59.7812L59.5625 22.2031C58.4375 23.6094 56.9896 24.3125 55.2188 24.3125C53.2292 24.3125 51.6302 23.5312 50.4219 21.9688C49.224 20.3958 48.625 18.2135 48.625 15.4219ZM53.1406 15.75C53.1406 17.3333 53.4167 18.5469 53.9688 19.3906C54.5208 20.2344 55.3229 20.6562 56.375 20.6562C57.7708 20.6562 58.7552 20.0677 59.3281 18.8906V12.2188C58.7656 11.0417 57.7917 10.4531 56.4062 10.4531C54.2292 10.4531 53.1406 12.2188 53.1406 15.75ZM77.1562 24C76.9479 23.5938 76.7969 23.0885 76.7031 22.4844C75.6094 23.7031 74.1875 24.3125 72.4375 24.3125C70.7812 24.3125 69.4062 23.8333 68.3125 22.875C67.2292 21.9167 66.6875 20.7083 66.6875 19.25C66.6875 17.4583 67.349 16.0833 68.6719 15.125C70.0052 14.1667 71.9271 13.6823 74.4375 13.6719H76.5156V12.7031C76.5156 11.9219 76.3125 11.2969 75.9062 10.8281C75.5104 10.3594 74.8802 10.125 74.0156 10.125C73.2552 10.125 72.6562 10.3073 72.2188 10.6719C71.7917 11.0365 71.5781 11.5365 71.5781 12.1719H67.0625C67.0625 11.1927 67.3646 10.2865 67.9688 9.45312C68.5729 8.61979 69.4271 7.96875 70.5312 7.5C71.6354 7.02083 72.875 6.78125 74.25 6.78125C76.3333 6.78125 77.9844 7.30729 79.2031 8.35938C80.4323 9.40104 81.0469 10.8698 81.0469 12.7656V20.0938C81.0573 21.6979 81.2812 22.9115 81.7188 23.7344V24H77.1562ZM73.4219 20.8594C74.0885 20.8594 74.7031 20.7135 75.2656 20.4219C75.8281 20.1198 76.2448 19.7188 76.5156 19.2188V16.3125H74.8281C72.5677 16.3125 71.3646 17.0938 71.2188 18.6562L71.2031 18.9219C71.2031 19.4844 71.401 19.9479 71.7969 20.3125C72.1927 20.6771 72.7344 20.8594 73.4219 20.8594ZM93.6719 19.3281C93.6719 18.776 93.3958 18.3438 92.8438 18.0312C92.3021 17.7083 91.4271 17.4219 90.2188 17.1719C86.1979 16.3281 84.1875 14.6198 84.1875 12.0469C84.1875 10.5469 84.8073 9.29688 86.0469 8.29688C87.2969 7.28646 88.9271 6.78125 90.9375 6.78125C93.0833 6.78125 94.7969 7.28646 96.0781 8.29688C97.3698 9.30729 98.0156 10.6198 98.0156 12.2344H93.5C93.5 11.5885 93.2917 11.0573 92.875 10.6406C92.4583 10.2135 91.8073 10 90.9219 10C90.1615 10 89.5729 10.1719 89.1562 10.5156C88.7396 10.8594 88.5312 11.2969 88.5312 11.8281C88.5312 12.3281 88.7656 12.7344 89.2344 13.0469C89.7135 13.349 90.5156 13.6146 91.6406 13.8438C92.7656 14.0625 93.7135 14.3125 94.4844 14.5938C96.8698 15.4688 98.0625 16.9844 98.0625 19.1406C98.0625 20.6823 97.401 21.9323 96.0781 22.8906C94.7552 23.8385 93.0469 24.3125 90.9531 24.3125C89.5365 24.3125 88.276 24.0625 87.1719 23.5625C86.0781 23.0521 85.2188 22.3594 84.5938 21.4844C83.9688 20.599 83.6562 19.6458 83.6562 18.625H87.9375C87.9792 19.4271 88.276 20.0417 88.8281 20.4688C89.3802 20.8958 90.1198 21.1094 91.0469 21.1094C91.9115 21.1094 92.5625 20.9479 93 20.625C93.4479 20.2917 93.6719 19.8594 93.6719 19.3281ZM106.391 2.9375V7.09375H109.281V10.4062H106.391V18.8438C106.391 19.4688 106.51 19.9167 106.75 20.1875C106.99 20.4583 107.448 20.5938 108.125 20.5938C108.625 20.5938 109.068 20.5573 109.453 20.4844V23.9062C108.568 24.1771 107.656 24.3125 106.719 24.3125C103.552 24.3125 101.938 22.7135 101.875 19.5156V10.4062H99.4062V7.09375H101.875V2.9375H106.391ZM121.297 11.3281C120.682 11.2448 120.141 11.2031 119.672 11.2031C117.964 11.2031 116.844 11.7812 116.312 12.9375V24H111.797V7.09375H116.062L116.188 9.10938C117.094 7.55729 118.349 6.78125 119.953 6.78125C120.453 6.78125 120.922 6.84896 121.359 6.98438L121.297 11.3281ZM122.219 15.3906C122.219 13.7135 122.542 12.2188 123.188 10.9062C123.833 9.59375 124.76 8.57812 125.969 7.85938C127.188 7.14062 128.599 6.78125 130.203 6.78125C132.484 6.78125 134.344 7.47917 135.781 8.875C137.229 10.2708 138.036 12.1667 138.203 14.5625L138.234 15.7188C138.234 18.3125 137.51 20.3958 136.062 21.9688C134.615 23.5312 132.672 24.3125 130.234 24.3125C127.797 24.3125 125.849 23.5312 124.391 21.9688C122.943 20.4062 122.219 18.2812 122.219 15.5938V15.3906ZM126.734 15.7188C126.734 17.3229 127.036 18.5521 127.641 19.4062C128.245 20.25 129.109 20.6719 130.234 20.6719C131.328 20.6719 132.182 20.2552 132.797 19.4219C133.411 18.5781 133.719 17.2344 133.719 15.3906C133.719 13.8177 133.411 12.599 132.797 11.7344C132.182 10.8698 131.318 10.4375 130.203 10.4375C129.099 10.4375 128.245 10.8698 127.641 11.7344C127.036 12.5885 126.734 13.9167 126.734 15.7188ZM149.281 24V1.25H156.281C158.281 1.25 160.068 1.70312 161.641 2.60938C163.224 3.50521 164.458 4.78646 165.344 6.45312C166.229 8.10938 166.672 9.99479 166.672 12.1094V13.1562C166.672 15.2708 166.234 17.151 165.359 18.7969C164.495 20.4427 163.271 21.7188 161.688 22.625C160.104 23.5312 158.318 23.9896 156.328 24H149.281ZM153.969 5.04688V20.2344H156.234C158.068 20.2344 159.469 19.6354 160.438 18.4375C161.406 17.2396 161.901 15.526 161.922 13.2969V12.0938C161.922 9.78125 161.443 8.03125 160.484 6.84375C159.526 5.64583 158.125 5.04688 156.281 5.04688H153.969ZM183.781 14.1406H174.781V20.2344H185.344V24H170.094V1.25H185.312V5.04688H174.781V10.4688H183.781V14.1406ZM196.5 18.3594L201.656 1.25H206.875L198.953 24H194.062L186.172 1.25H191.375L196.5 18.3594Z" fill="white"/>
</svg>
